<svg width="44" height="44" viewBox="0 0 44 44" fill="none" xmlns="http://www.w3.org/2000/svg">
<path d="M22 13.75C20.3683 13.75 18.7733 14.2339 17.4165 15.1404C16.0598 16.0469 15.0024 17.3354 14.378 18.8429C13.7536 20.3504 13.5902 22.0092 13.9085 23.6095C14.2269 25.2098 15.0126 26.6798 16.1664 27.8336C17.3202 28.9874 18.7902 29.7732 20.3905 30.0915C21.9908 30.4098 23.6496 30.2464 25.1571 29.622C26.6646 28.9976 27.9531 27.9402 28.8596 26.5835C29.7661 25.2267 30.25 23.6317 30.25 22C30.2477 19.8127 29.3778 17.7156 27.8311 16.1689C26.2844 14.6222 24.1873 13.7523 22 13.75ZM22 27.5C20.9122 27.5 19.8488 27.1774 18.9444 26.5731C18.0399 25.9687 17.3349 25.1098 16.9187 24.1048C16.5024 23.0998 16.3935 21.9939 16.6057 20.927C16.8179 19.8601 17.3417 18.8801 18.1109 18.1109C18.8801 17.3417 19.8601 16.8179 20.927 16.6057C21.9939 16.3935 23.0998 16.5024 24.1048 16.9187C25.1098 17.3349 25.9687 18.0399 26.5731 18.9444C27.1774 19.8488 27.5 20.9122 27.5 22C27.5 23.4587 26.9205 24.8576 25.8891 25.8891C24.8576 26.9205 23.4587 27.5 22 27.5ZM30.25 4.125H13.75C11.1981 4.12773 8.75156 5.14267 6.94711 6.94711C5.14267 8.75156 4.12773 11.1981 4.125 13.75V30.25C4.12773 32.8019 5.14267 35.2484 6.94711 37.0529C8.75156 38.8573 11.1981 39.8723 13.75 39.875H30.25C32.8019 39.8723 35.2484 38.8573 37.0529 37.0529C38.8573 35.2484 39.8723 32.8019 39.875 30.25V13.75C39.8723 11.1981 38.8573 8.75156 37.0529 6.94711C35.2484 5.14267 32.8019 4.12773 30.25 4.125ZM37.125 30.25C37.125 32.0734 36.4007 33.822 35.1114 35.1114C33.822 36.4007 32.0734 37.125 30.25 37.125H13.75C11.9266 37.125 10.178 36.4007 8.88864 35.1114C7.59933 33.822 6.875 32.0734 6.875 30.25V13.75C6.875 11.9266 7.59933 10.178 8.88864 8.88864C10.178 7.59933 11.9266 6.875 13.75 6.875H30.25C32.0734 6.875 33.822 7.59933 35.1114 8.88864C36.4007 10.178 37.125 11.9266 37.125 13.75V30.25ZM33 13.0625C33 13.4704 32.879 13.8692 32.6524 14.2084C32.4258 14.5475 32.1037 14.8119 31.7268 14.968C31.3499 15.1241 30.9352 15.165 30.5351 15.0854C30.135 15.0058 29.7675 14.8094 29.4791 14.5209C29.1906 14.2325 28.9942 13.865 28.9146 13.4649C28.835 13.0648 28.8759 12.6501 29.032 12.2732C29.1881 11.8963 29.4525 11.5742 29.7916 11.3476C30.1308 11.121 30.5296 11 30.9375 11C31.4845 11 32.0091 11.2173 32.3959 11.6041C32.7827 11.9909 33 12.5155 33 13.0625Z" fill="#E18484"/>
</svg>
