<svg width="44" height="44" viewBox="0 0 44 44" fill="none" xmlns="http://www.w3.org/2000/svg">
<path d="M32.2403 24.8944L26.7403 22.1444C26.5238 22.0365 26.2827 21.9876 26.0413 22.0027C25.7999 22.0178 25.5667 22.0963 25.3653 22.2303L22.8405 23.9147C21.6814 23.2775 20.7276 22.3237 20.0905 21.1647L21.7748 18.6398C21.9088 18.4385 21.9873 18.2053 22.0024 17.9639C22.0175 17.7225 21.9687 17.4813 21.8608 17.2648L19.1108 11.7648C18.9968 11.5347 18.8206 11.341 18.6022 11.2058C18.3838 11.0706 18.1319 10.9993 17.875 11C16.0516 11 14.3029 11.7243 13.0136 13.0136C11.7243 14.303 11 16.0516 11 17.875C11.0045 21.885 12.5995 25.7295 15.435 28.565C18.2705 31.4005 22.115 32.9955 26.125 33C27.0278 33 27.9218 32.8222 28.7559 32.4767C29.5901 32.1312 30.348 31.6248 30.9864 30.9864C31.6248 30.348 32.1312 29.5901 32.4767 28.7559C32.8222 27.9218 33 27.0278 33 26.125C33.0002 25.8696 32.9292 25.6191 32.795 25.4017C32.6608 25.1844 32.4688 25.0087 32.2403 24.8944ZM26.125 30.25C22.8441 30.2464 19.6985 28.9414 17.3786 26.6214C15.0586 24.3015 13.7536 21.1559 13.75 17.875C13.7497 16.9213 14.0799 15.997 14.6844 15.2593C15.2889 14.5216 16.1303 14.0162 17.0655 13.8291L19.0386 17.7822L17.3594 20.2812C17.2339 20.4695 17.1568 20.6858 17.1349 20.9109C17.113 21.1361 17.147 21.3632 17.2339 21.572C18.2177 23.9102 20.0778 25.7703 22.4159 26.7541C22.6254 26.8448 22.8542 26.8819 23.0817 26.8621C23.3091 26.8423 23.5281 26.7662 23.7187 26.6406L26.2298 24.9666L30.183 26.9397C29.9943 27.8759 29.4867 28.7177 28.7467 29.3214C28.0066 29.9251 27.08 30.2533 26.125 30.25ZM22 4.125C18.9139 4.12433 15.8802 4.92265 13.1942 6.44227C10.5082 7.96189 8.26142 10.151 6.67248 12.7966C5.08354 15.4422 4.2066 18.4541 4.12704 21.5391C4.04747 24.6242 4.76798 27.6773 6.21843 30.4013L4.26765 36.2536C4.10606 36.7381 4.08261 37.2581 4.19993 37.7552C4.31725 38.2523 4.57069 38.707 4.93186 39.0681C5.29304 39.4293 5.74766 39.6828 6.24478 39.8001C6.74189 39.9174 7.26186 39.8939 7.7464 39.7323L13.5987 37.7816C15.996 39.0566 18.6522 39.7688 21.3658 39.864C24.0794 39.9592 26.779 39.435 29.2598 38.3311C31.7405 37.2272 33.9372 35.5727 35.683 33.4931C37.4288 31.4135 38.6779 28.9635 39.3355 26.3291C39.9931 23.6946 40.0419 20.945 39.4782 18.2889C38.9145 15.6328 37.7531 13.1401 36.0821 10.9999C34.4112 8.85963 32.2746 7.12821 29.8346 5.937C27.3946 4.74579 24.7153 4.12611 22 4.125ZM22 37.125C19.3411 37.1268 16.7288 36.4266 14.4272 35.0952C14.2587 34.9974 14.0713 34.9366 13.8775 34.9168C13.6837 34.8969 13.4879 34.9185 13.3031 34.98L6.875 37.125L9.01828 30.6969C9.08006 30.5122 9.10189 30.3164 9.08234 30.1227C9.06278 29.9289 9.00228 29.7415 8.90484 29.5728C7.2376 26.6903 6.56821 23.3382 7.00051 20.0364C7.43282 16.7347 8.94264 13.6679 11.2958 11.3118C13.6489 8.95566 16.7138 7.44196 20.015 7.00549C23.3162 6.56902 26.6692 7.23418 29.5538 8.89777C32.4384 10.5614 34.6934 13.1304 35.9689 16.2064C37.2444 19.2823 37.4692 22.6932 36.6084 25.91C35.7476 29.1267 33.8493 31.9695 31.2079 33.9972C28.5666 36.025 25.3299 37.1245 22 37.125Z" fill="#E18484"/>
</svg>
